<?xml version="1.0" standalone="no"?>
<!DOCTYPE svg PUBLIC "-//W3C//DTD SVG 20010904//EN"
 "http://www.w3.org/TR/2001/REC-SVG-20010904/DTD/svg10.dtd">
<svg version="1.0" xmlns="http://www.w3.org/2000/svg"
 width="512.000000pt" height="512.000000pt" viewBox="0 0 512.000000 512.000000"
 preserveAspectRatio="xMidYMid meet">
<metadata>
Created by potrace 1.14, written by Peter Selinger 2001-2017
</metadata>
<g transform="translate(0.000000,512.000000) scale(0.100000,-0.100000)"
fill="#000000" stroke="none">
<path d="M660 4341 l0 -289 88 -12 c1080 -154 3458 -486 3461 -484 7 6 -93
167 -167 267 -90 120 -264 299 -377 384 -306 231 -656 371 -1030 413 -54 6
-468 10 -1032 10 l-943 0 0 -289z"/>
<path d="M660 2596 l0 -886 38 5 c20 4 864 122 1875 264 1011 142 1840 261
1843 263 25 26 42 404 25 563 -7 61 -14 119 -17 130 -5 19 -125 37 -1852 280
-1016 142 -1862 261 -1879 263 l-33 4 0 -886z"/>
<path d="M2420 1389 c-965 -136 -1756 -248 -1757 -249 -2 0 -3 -128 -3 -285
l0 -286 993 4 c1083 3 1042 1 1282 64 522 136 978 485 1249 956 24 41 25 47 9
46 -10 -1 -808 -113 -1773 -250z"/>
</g>
</svg>
